<svg xmlns="http://www.w3.org/2000/svg" version="1.1" xmlns:xlink="http://www.w3.org/1999/xlink" xmlns:svgjs="http://svgjs.dev/svgjs" width="1500" height="1500" viewBox="0 0 1500 1500"><rect width="1500" height="1500" fill="#02704b"></rect><g transform="matrix(0.6666666666666666,0,0,0.6666666666666666,249.39393939393938,438.5856950067477)"><svg viewBox="0 0 396 247" data-background-color="#02704b" preserveAspectRatio="xMidYMid meet" height="935" width="1500" xmlns="http://www.w3.org/2000/svg" xmlns:xlink="http://www.w3.org/1999/xlink"><g id="tight-bounds" transform="matrix(1,0,0,1,0.2400000000000091,-0.09999999999999432)"><svg viewBox="0 0 395.52 247.2" height="247.2" width="395.52"><g><svg></svg></g><g><svg viewBox="0 0 395.52 247.2" height="247.2" width="395.52"><g transform="matrix(1,0,0,1,75.54432000000001,101.48546378803734)"><svg viewBox="0 0 244.43135999999996 44.229072423925324" height="44.229072423925324" width="244.43135999999996"><g><svg viewBox="0 0 244.43135999999996 44.229072423925324" height="44.229072423925324" width="244.43135999999996"><g><svg viewBox="0 0 244.43135999999996 44.229072423925324" height="44.229072423925324" width="244.43135999999996"><g id="textblocktransform"><svg viewBox="0 0 244.43135999999996 44.229072423925324" height="44.229072423925324" width="244.43135999999996" id="textblock"><g><svg viewBox="0 0 244.43135999999996 44.229072423925324" height="44.229072423925324" width="244.43135999999996"><g transform="matrix(1,0,0,1,0,0)"><svg width="244.43135999999996" viewBox="-0.7909090909090907 -37.8 217.17090909090908 39.3" height="44.229072423925324" data-palette-color="#eeddc1"><path d="M30.25-32.5L18.25 1Q17.4 1.5 16.45 1.5L16.45 1.5 3.1-32.5-0.75-33.5Q-0.9-34.45-0.5-35.25L-0.5-35.25Q0.4-35.2 1.65-35.15 2.9-35.1 4.17-35.05 5.45-35 6.35-35L6.35-35Q7.8-35 9.8-35.1 11.8-35.2 13.2-35.25L13.2-35.25Q13.35-34.3 13.1-33.5L13.1-33.5Q12.05-33.35 11.08-33.13 10.1-32.9 9.1-32.5L9.1-32.5 16.35-13.1Q17.1-11.05 17.63-9.33 18.15-7.6 18.45-5.85L18.45-5.85 18.55-5.85Q19.1-7.65 19.68-9.58 20.25-11.5 20.85-13.35L20.85-13.35 27.5-32.5 23.65-33.5Q23.5-34.45 23.9-35.25L23.9-35.25Q25.25-35.2 26.45-35.1 27.65-35 29.05-35L29.05-35Q30.5-35 31.78-35.1 33.05-35.2 34.45-35.25L34.45-35.25Q34.6-34.3 34.35-33.5L34.35-33.5Q33.3-33.35 32.2-33.13 31.1-32.9 30.25-32.5L30.25-32.5ZM43.85-24.95L43.85-2.5 47.2-1.5Q47.35-0.55 46.95 0.25L46.95 0.25Q45.6 0.15 44.17 0.08 42.75 0 41.35 0L41.35 0Q39.95 0 38.3 0.08 36.65 0.15 35.25 0.25L35.25 0.25Q35.1-0.7 35.35-1.5L35.35-1.5Q36.3-1.75 37.22-1.95 38.15-2.15 38.85-2.5L38.85-2.5 38.85-22 34.7-22.4Q34.55-23.4 34.95-24.15L34.95-24.15Q36.75-24.4 38.57-24.75 40.4-25.1 41.95-25.5L41.95-25.5Q42.45-25.45 42.9-25.33 43.35-25.2 43.85-24.95L43.85-24.95ZM40.5-30.05L40.5-30.05Q39.65-30.05 38.95-30.6 38.25-31.15 37.85-31.95 37.45-32.75 37.45-33.45L37.45-33.45Q37.45-34.1 38-34.77 38.55-35.45 39.37-35.93 40.2-36.4 41-36.4L41-36.4Q41.9-36.4 42.6-35.83 43.3-35.25 43.67-34.48 44.05-33.7 44.05-33L44.05-33Q44.05-32.35 43.52-31.65 43-30.95 42.17-30.5 41.35-30.05 40.5-30.05ZM57.9-25.05L57.75-21.65 57.8-21.6Q60.2-24 62.75-24.9 65.3-25.8 67.2-25.8L67.2-25.8Q70.45-25.8 72.32-23.95 74.2-22.1 74.2-18.55L74.2-18.55 74.25-2.5 77.75-1.5Q77.9-0.55 77.5 0.25L77.5 0.25Q76.15 0.15 74.65 0.08 73.15 0 71.75 0L71.75 0Q70.34 0 68.8 0.08 67.25 0.15 65.84 0.25L65.84 0.25Q65.7-0.7 65.95-1.5L65.95-1.5Q66.95-1.7 67.72-1.95 68.5-2.2 69.25-2.5L69.25-2.5 69.25-16.3Q69.25-19.7 68.2-21 67.15-22.3 64.84-22.3L64.84-22.3Q63-22.3 61.25-21.58 59.5-20.85 58.15-19.3L58.15-19.3 58.15-2.5 61.5-1.5Q61.65-0.55 61.25 0.25L61.25 0.25Q59.9 0.15 58.47 0.08 57.05 0 55.65 0L55.65 0Q54.25 0 52.6 0.08 50.95 0.15 49.55 0.25L49.55 0.25Q49.4-0.7 49.65-1.5L49.65-1.5Q50.55-1.75 51.45-1.98 52.35-2.2 53.15-2.5L53.15-2.5 53.15-22 49-22.4Q48.85-23.4 49.25-24.15L49.25-24.15Q51.1-24.45 52.85-24.8 54.6-25.15 56.2-25.5L56.2-25.5Q57.05-25.45 57.9-25.05L57.9-25.05ZM88.44 0.8L88.44 0.8Q86.84 0.8 85.54 0.2 84.24-0.4 83.52-1.88 82.79-3.35 82.79-5.95L82.79-5.95 82.79-21.9 79.29-21.9Q78.99-22.45 78.97-23.03 78.94-23.6 79.04-24.15L79.04-24.15Q81.14-24.15 82.19-24.7 83.24-25.25 83.82-26.6 84.39-27.95 85.04-30.25L85.04-30.25 87.69-30.25 87.69-24.65 92.94-24.65Q93.64-23.2 92.94-21.9L92.94-21.9 87.69-21.9 87.69-7.2Q87.69-4.9 87.92-3.73 88.14-2.55 88.69-2.13 89.24-1.7 90.19-1.7L90.19-1.7Q90.99-1.7 91.74-2 92.49-2.3 93.19-2.7L93.19-2.7Q93.89-2.25 93.94-1.2L93.94-1.2Q93.39-0.55 91.94 0.13 90.49 0.8 88.44 0.8ZM103.64-37.25L103.64-22.25 103.89-22.25Q106.14-24.3 108.27-25.15 110.39-26 112.09-26L112.09-26Q116.19-26 118.07-23.85 119.94-21.7 119.94-18.2L119.94-18.2 119.94-2.5 123.54-1.5Q123.69-0.55 123.29 0.25L123.29 0.25Q121.94 0.15 120.39 0.08 118.84 0 117.44 0L117.44 0Q116.04 0 114.39 0.08 112.74 0.15 111.34 0.25L111.34 0.25Q111.19-0.7 111.44-1.5L111.44-1.5Q112.34-1.7 113.24-1.93 114.14-2.15 114.94-2.5L114.94-2.5 114.94-17.45Q114.94-19.55 114.29-20.65 113.64-21.75 112.54-22.13 111.44-22.5 110.09-22.5L110.09-22.5Q108.49-22.5 106.77-21.7 105.04-20.9 103.89-19.6L103.89-19.6 103.89-2.5 107.24-1.5Q107.39-0.55 106.99 0.25L106.99 0.25Q105.64 0.15 104.22 0.08 102.79 0 101.39 0L101.39 0Q99.99 0 98.34 0.08 96.69 0.15 95.29 0.25L95.29 0.25Q95.14-0.7 95.39-1.5L95.39-1.5Q96.34-1.75 97.27-1.95 98.19-2.15 98.89-2.5L98.89-2.5 98.89-34.3 94.74-34.7Q94.59-35.7 94.99-36.45L94.99-36.45Q98.59-37 101.74-37.8L101.74-37.8Q102.24-37.75 102.69-37.63 103.14-37.5 103.64-37.25L103.64-37.25ZM133.79-37.25L133.79-2.5 137.64-1.5Q137.79-0.55 137.39 0.25L137.39 0.25Q136.04 0.15 134.36 0.08 132.69 0 131.29 0L131.29 0Q129.89 0 128.24 0.08 126.59 0.15 125.19 0.25L125.19 0.25Q125.04-0.7 125.29-1.5L125.29-1.5Q126.24-1.75 127.16-1.95 128.09-2.15 128.79-2.5L128.79-2.5 128.79-34.3 124.64-34.7Q124.49-35.7 124.89-36.45L124.89-36.45Q126.69-36.7 128.51-37.05 130.34-37.4 131.89-37.8L131.89-37.8Q132.39-37.75 132.84-37.63 133.29-37.5 133.79-37.25L133.79-37.25ZM145.44-13.5L145.44-12.5Q145.44-7.45 147.46-4.67 149.49-1.9 152.99-1.9L152.99-1.9Q154.54-1.9 155.59-2.08 156.64-2.25 157.66-2.75 158.69-3.25 159.99-4.15L159.99-4.15Q160.79-3.8 160.89-2.95L160.89-2.95Q159.34-1.15 157.19-0.15 155.04 0.85 152.84 0.85L152.84 0.85Q149.04 0.85 146.19-0.75 143.34-2.35 141.74-5.35 140.14-8.35 140.14-12.5L140.14-12.5Q140.14-16.75 141.81-19.73 143.49-22.7 146.31-24.28 149.14-25.85 152.59-25.85L152.59-25.85Q157.04-25.85 159.16-22.88 161.29-19.9 161.29-15.2L161.29-15.2Q161.29-14.85 161.29-14.55 161.29-14.25 161.24-13.9L161.24-13.9 160.54-13.35 145.44-13.5ZM152.54-23.7L152.54-23.7Q151.09-23.7 149.66-22.8 148.24-21.9 147.14-20.1 146.04-18.3 145.64-15.55L145.64-15.55 156.54-16.15Q156.54-20 155.71-21.85 154.89-23.7 152.54-23.7ZM173.18 0.8L173.18 0.8Q171.58 0.8 170.28 0.2 168.98-0.4 168.26-1.88 167.53-3.35 167.53-5.95L167.53-5.95 167.53-21.9 164.03-21.9Q163.73-22.45 163.71-23.03 163.68-23.6 163.78-24.15L163.78-24.15Q165.88-24.15 166.93-24.7 167.98-25.25 168.56-26.6 169.13-27.95 169.78-30.25L169.78-30.25 172.43-30.25 172.43-24.65 177.68-24.65Q178.38-23.2 177.68-21.9L177.68-21.9 172.43-21.9 172.43-7.2Q172.43-4.9 172.66-3.73 172.88-2.55 173.43-2.13 173.98-1.7 174.93-1.7L174.93-1.7Q175.73-1.7 176.48-2 177.23-2.3 177.93-2.7L177.93-2.7Q178.63-2.25 178.68-1.2L178.68-1.2Q178.13-0.55 176.68 0.13 175.23 0.8 173.18 0.8ZM189.38-24.95L189.38-2.5 192.73-1.5Q192.88-0.55 192.48 0.25L192.48 0.25Q191.13 0.15 189.71 0.08 188.28 0 186.88 0L186.88 0Q185.48 0 183.83 0.08 182.18 0.15 180.78 0.25L180.78 0.25Q180.63-0.7 180.88-1.5L180.88-1.5Q181.83-1.75 182.76-1.95 183.68-2.15 184.38-2.5L184.38-2.5 184.38-22 180.23-22.4Q180.08-23.4 180.48-24.15L180.48-24.15Q182.28-24.4 184.11-24.75 185.93-25.1 187.48-25.5L187.48-25.5Q187.98-25.45 188.43-25.33 188.88-25.2 189.38-24.95L189.38-24.95ZM186.03-30.05L186.03-30.05Q185.18-30.05 184.48-30.6 183.78-31.15 183.38-31.95 182.98-32.75 182.98-33.45L182.98-33.45Q182.98-34.1 183.53-34.77 184.08-35.45 184.91-35.93 185.73-36.4 186.53-36.4L186.53-36.4Q187.43-36.4 188.13-35.83 188.83-35.25 189.21-34.48 189.58-33.7 189.58-33L189.58-33Q189.58-32.35 189.06-31.65 188.53-30.95 187.71-30.5 186.88-30.05 186.03-30.05ZM213.18-17.7L212.53-23Q211.78-23.35 210.7-23.53 209.63-23.7 208.78-23.7L208.78-23.7Q206.13-23.7 204.38-22.28 202.63-20.85 201.75-18.32 200.88-15.8 200.88-12.5L200.88-12.5Q200.88-8.75 201.9-6.4 202.93-4.05 204.65-2.95 206.38-1.85 208.48-1.85L208.48-1.85Q210.13-1.85 211.9-2.48 213.68-3.1 215.38-4.2L215.38-4.2Q215.78-3.95 215.98-3.63 216.18-3.3 216.28-2.9L216.28-2.9Q214.43-0.95 212.2-0.05 209.98 0.85 207.73 0.85L207.73 0.85Q204.63 0.85 201.83-0.7 199.03-2.25 197.28-5.25 195.53-8.25 195.53-12.5L195.53-12.5Q195.53-16.9 197.3-19.88 199.08-22.85 202.08-24.38 205.08-25.9 208.63-25.9L208.63-25.9Q210.53-25.9 212.48-25.53 214.43-25.15 216.38-24.3L216.38-24.3Q216.38-20.6 215.38-17.5L215.38-17.5Q215.18-17.45 214.98-17.45 214.78-17.45 214.58-17.45L214.58-17.45Q214.23-17.45 213.88-17.5 213.53-17.55 213.18-17.7L213.18-17.7Z" opacity="1" transform="matrix(1,0,0,1,0,0)" fill="#eeddc1" class="wordmark-text-0" data-fill-palette-color="primary" id="text-0"></path></svg></g></svg></g></svg></g></svg></g></svg></g></svg></g><g><path d="M0 123.6c0-68.262 55.338-123.6 123.6-123.6 58.869 0 108.126 41.156 120.567 96.265l-2.046 0c-12.403-53.998-60.759-94.27-118.521-94.271-67.161 0-121.606 54.445-121.606 121.606 0 67.161 54.445 121.606 121.606 121.606 57.762 0 106.118-40.272 118.521-94.271l2.046 0c-12.441 55.109-61.698 96.265-120.567 96.265-68.262 0-123.6-55.338-123.6-123.6z" fill="#eeddc1" stroke="transparent" data-fill-palette-color="tertiary"></path></g></svg></g><defs></defs></svg><rect width="395.52" height="247.2" fill="none" stroke="none" visibility="hidden"></rect></g></svg></g></svg>